<?xml version="1.0" encoding="iso-8859-1"?>
<!-- Generator: Adobe Illustrator 19.0.0, SVG Export Plug-In . SVG Version: 6.00 Build 0)  -->
<svg version="1.1" id="Capa_1" xmlns="http://www.w3.org/2000/svg" xmlns:xlink="http://www.w3.org/1999/xlink" x="0px" y="0px"
	 viewBox="0 0 57.051 57.051" style="enable-background:new 0 0 57.051 57.051;" xml:space="preserve">
<g>
	<path d="M42.775,16.569c-1.527-2.446-3.905-5.331-6.696-8.122C31.873,4.242,26.367,0,23.547,0c-0.778,0-1.25,0.309-1.508,0.566
		c-1.091,1.091-0.603,3.18,1.492,6.387l0.247,0.379l2.934,0.419l-1.331,1.775l0.492,0.605c1.076,1.326,2.283,2.654,3.562,3.962
		c-0.47-0.019-0.941-0.042-1.409-0.042c-8.837,0-15.5,3.01-15.5,7v5.755l4.4,1.931c2.663,1.43,6.785,2.262,11.1,2.262
		c3.816,0,7.498-0.648,10.102-1.779l5.398-2.197v-4.229c0.18-0.097,0.33-0.205,0.434-0.309
		C44.999,21.447,44.611,19.512,42.775,16.569z M28.025,16.052c1.2,0,2.412,0.066,3.608,0.198c0.326,0.301,0.656,0.598,0.988,0.892
		c0.088,0.078,0.177,0.155,0.266,0.233c0.28,0.245,0.562,0.486,0.844,0.723c0.073,0.062,0.146,0.123,0.219,0.185
		c0.734,0.61,1.47,1.185,2.193,1.715c0.068,0.05,0.134,0.098,0.202,0.146c0.343,0.248,0.683,0.485,1.018,0.708
		c0.023,0.016,0.047,0.033,0.071,0.048c0.367,0.244,0.727,0.469,1.08,0.677c0.045,0.027,0.089,0.051,0.134,0.077
		c0.317,0.184,0.625,0.352,0.926,0.504c0.042,0.021,0.084,0.044,0.126,0.064c0.34,0.168,0.669,0.315,0.983,0.435
		c-1.438,1.418-4.666,2.707-8.981,3.19c-0.185,0.02-0.368,0.041-0.557,0.059c-0.186,0.017-0.375,0.032-0.565,0.046
		c-0.257,0.019-0.518,0.036-0.782,0.049c-0.153,0.008-0.306,0.017-0.462,0.022c-0.43,0.016-0.866,0.027-1.313,0.027
		c-7.956,0-13.5-2.635-13.5-5S20.069,16.052,28.025,16.052z"/>
	<path d="M23.029,17.131l0.992,1.736l-6.999,4L16.03,21.13L23.029,17.131z M30.079,18.831l-9.001,6l-1.109-1.664l9.001-6
		L30.079,18.831z M34.126,19.8l-8,6l-1.199-1.599l8-6L34.126,19.8z M37.149,21.78l-5,4l-1.25-1.563l5-4L37.149,21.78z"/>
	<path d="M15.512,43.111c6.504,3.362,8.797,2.38,9.345,1.998c0.701-0.488,0.755-1.35,0.677-1.987
		c-0.663-5.372-1.519-5.573-8.176-7.134c-1.846-0.434-3.206-0.925-4.192-1.306l-0.64-0.283v7.164l1.524,0.715
		C14.515,42.564,14.997,42.846,15.512,43.111z"/>
	<path d="M28.025,33c-4.699,0-9.063-0.898-11.975-2.465l-3.525-1.547v3.224l1.405,0.623c0.881,0.339,2.157,0.8,3.823,1.19
		c6.874,1.612,8.931,2.095,9.764,8.852c0.207,1.672-0.333,3.048-1.519,3.873c-0.639,0.445-1.579,0.797-2.953,0.798
		c-1.886,0-4.588-0.664-8.452-2.66c-0.488-0.253-0.994-0.54-1.544-0.877l-0.524-0.246v3.041l4.4,1.931
		c2.663,1.43,6.785,2.262,11.1,2.262c3.816,0,7.498-0.648,10.102-1.779l5.398-2.197V29.182l-4.623,1.881
		C36.036,32.31,32.166,33,28.025,33z"/>
	<path d="M28.025,53c-4.699,0-9.063-0.898-11.975-2.465l-3.525-1.547v1.063c0,3.99,6.663,7,15.5,7s15.5-3.01,15.5-7v-0.869
		l-4.623,1.881C36.036,52.31,32.166,53,28.025,53z"/>
</g>
<g>
</g>
<g>
</g>
<g>
</g>
<g>
</g>
<g>
</g>
<g>
</g>
<g>
</g>
<g>
</g>
<g>
</g>
<g>
</g>
<g>
</g>
<g>
</g>
<g>
</g>
<g>
</g>
<g>
</g>
</svg>
