<?xml version="1.0" encoding="iso-8859-1"?>
<!-- Generator: Adobe Illustrator 19.0.0, SVG Export Plug-In . SVG Version: 6.00 Build 0)  -->
<svg version="1.1" id="Layer_1" xmlns="http://www.w3.org/2000/svg" xmlns:xlink="http://www.w3.org/1999/xlink" x="0px" y="0px"
	 viewBox="0 0 512.003 512.003" style="enable-background:new 0 0 512.003 512.003;" xml:space="preserve">
<g transform="translate(-1 -1)">
	<g>
		<g>
			<path d="M361.137,105.136H152.866c-4.793,0-8.678,3.885-8.678,8.678v86.78c0,4.793,3.885,8.678,8.678,8.678h208.271
				c4.793,0,8.678-3.885,8.678-8.678v-86.78C369.815,109.021,365.93,105.136,361.137,105.136z M352.459,191.915H161.544v-69.424
				h190.915V191.915z"/>
			<path d="M413.205,1H100.798c-4.793,0-8.678,3.885-8.678,8.678V44.39v407.864c0,0.046,0.006,0.089,0.007,0.135
				c0.003,0.233,0.012,0.465,0.035,0.699c0.01,0.101,0.027,0.199,0.04,0.299c0.036,0.269,0.08,0.538,0.143,0.808
				c0.057,0.251,0.123,0.498,0.201,0.74c0.033,0.101,0.073,0.201,0.11,0.302c0.094,0.255,0.198,0.504,0.314,0.747
				c0.024,0.051,0.039,0.103,0.065,0.154l26.034,52.068c1.47,2.94,4.475,4.797,7.762,4.797h260.339c3.287,0,6.292-1.857,7.762-4.797
				l26.034-52.068c0.025-0.051,0.04-0.103,0.065-0.154c0.116-0.243,0.221-0.492,0.314-0.747c0.037-0.101,0.077-0.201,0.11-0.302
				c0.079-0.242,0.144-0.49,0.201-0.74c0.063-0.27,0.107-0.538,0.143-0.808c0.013-0.1,0.031-0.198,0.04-0.299
				c0.023-0.234,0.032-0.466,0.035-0.699c0.001-0.045,0.007-0.089,0.007-0.135V44.39V9.678C421.883,4.885,417.997,1,413.205,1z
				 M109.476,53.068h295.051v390.508H109.476V53.068z M109.476,18.356h295.051v17.356H109.476V18.356z M381.808,495.647H132.195
				l-17.356-34.712h284.324L381.808,495.647z"/>
		</g>
	</g>
</g>
<g>
</g>
<g>
</g>
<g>
</g>
<g>
</g>
<g>
</g>
<g>
</g>
<g>
</g>
<g>
</g>
<g>
</g>
<g>
</g>
<g>
</g>
<g>
</g>
<g>
</g>
<g>
</g>
<g>
</g>
</svg>
