<?xml version="1.0" encoding="iso-8859-1"?>
<!-- Generator: Adobe Illustrator 19.0.0, SVG Export Plug-In . SVG Version: 6.00 Build 0)  -->
<svg version="1.1" id="Layer_1" xmlns="http://www.w3.org/2000/svg" xmlns:xlink="http://www.w3.org/1999/xlink" x="0px" y="0px"
	 viewBox="0 0 512 512" style="enable-background:new 0 0 512 512;" xml:space="preserve">
<g transform="translate(0 -1)">
	<g>
		<g>
			<rect x="160.542" y="122.489" width="190.915" height="69.424"/>
			<path d="M91.119,443.576h329.763V53.068H91.119V443.576z M143.186,113.814c0-4.79,3.888-8.678,8.678-8.678h208.271
				c4.79,0,8.678,3.888,8.678,8.678v86.78c0,4.79-3.888,8.678-8.678,8.678H151.864c-4.79,0-8.678-3.888-8.678-8.678V113.814z"/>
			<path d="M118.071,508.201c1.467,2.942,4.469,4.799,7.758,4.799h260.339c3.289,0,6.292-1.857,7.767-4.799l23.63-47.269H94.432
				L118.071,508.201z"/>
			<path d="M412.203,1H99.797c-4.79,0-8.678,3.888-8.678,8.678v26.034h329.763V9.678C420.881,4.888,417.002,1,412.203,1z"/>
		</g>
	</g>
</g>
<g>
</g>
<g>
</g>
<g>
</g>
<g>
</g>
<g>
</g>
<g>
</g>
<g>
</g>
<g>
</g>
<g>
</g>
<g>
</g>
<g>
</g>
<g>
</g>
<g>
</g>
<g>
</g>
<g>
</g>
</svg>
